<svg id="eAsiC1t2XpV1" xmlns="http://www.w3.org/2000/svg" xmlns:xlink="http://www.w3.org/1999/xlink" viewBox="0 0 300 300" shape-rendering="geometricPrecision" text-rendering="geometricPrecision" ><g id="eAsiC1t2XpV2" transform="matrix(.224855-.10558 0.100899 0.214885 278.901135-53.128863)"><path d="M204.14,269.7c8,17.93,40.05,37.59,44.15,35.52c12.11-5.86,20.38-24.1,18.31-27.72s-29-13.64-29-13.64c-12.55-6.06-40.06-10.72-33.46,5.84Z" fill="#86b4c4"/><path d="M157.89,174.29c11.76-18.18,54.23-32.89,63.19-33.23c6.9,1.73,1,40.12,0,42.42-4.65,10.7-69.43,3.52-63.19-9.19Z" fill="#86b4c4"/><g><path d="M354.88,224.77c-22.87,16.76-47.81,6.33-46.7,1.78c6.24-22.84,51-46.08,64.41-44.18c8.95,1.29-4.67,32.85-17.71,42.4Z" fill="#86b4c4"/><path d="M354.88,228.34c-22.87-16.76-47.81-6.33-46.7-1.78c6.24,22.84,51,46.08,64.41,44.18c8.95-1.29-4.67-32.85-17.71-42.4Z" fill="#86b4c4"/></g><g><path d="M321.47,229c-42.13-54.63-197.1-95.83-281.45,2.92-3.43,4-.08,6,1.32,7.13C98.52,285.6,212.17,298.39,321.47,229Z" fill="#86b4c4"/><circle r="6.16" transform="translate(81.85 220.56)" fill="#1d3945"/><path d="M98.91,187.85c9.3,9,27.64,54.77,5.83,82.21C164.85,286,244.25,278,321.47,229c-33.54-43.51-138.56-78.48-222.56-41.15Z" fill="#689cad"/></g></g><g id="eAsiC1t2XpV12" transform="matrix(-.198997-.108256-.107017 0.196719 27.688385-42.369653)"><path d="M204.14,269.7c8,17.93,40.05,37.59,44.15,35.52c12.11-5.86,20.38-24.1,18.31-27.72s-29-13.64-29-13.64c-12.55-6.06-40.06-10.72-33.46,5.84Z" fill="#86b4c4"/><path d="M157.89,174.29c11.76-18.18,54.23-32.89,63.19-33.23c6.9,1.73,1,40.12,0,42.42-4.65,10.7-69.43,3.52-63.19-9.19Z" fill="#86b4c4"/><g><path d="M354.88,224.77c-22.87,16.76-47.81,6.33-46.7,1.78c6.24-22.84,51-46.08,64.41-44.18c8.95,1.29-4.67,32.85-17.71,42.4Z" fill="#86b4c4"/><path d="M354.88,228.34c-22.87-16.76-47.81-6.33-46.7-1.78c6.24,22.84,51,46.08,64.41,44.18c8.95-1.29-4.67-32.85-17.71-42.4Z" fill="#86b4c4"/></g><g><path d="M321.47,229c-42.13-54.63-197.1-95.83-281.45,2.92-3.43,4-.08,6,1.32,7.13C98.52,285.6,212.17,298.39,321.47,229Z" fill="#86b4c4"/><circle r="6.16" transform="translate(81.85 220.56)" fill="#1d3945"/><path d="M98.91,187.85c9.3,9,27.64,54.77,5.83,82.21C164.85,286,244.25,278,321.47,229c-33.54-43.51-138.56-78.48-222.56-41.15Z" fill="#689cad"/></g></g><g id="eAsiC1t2XpV22" transform="matrix(.314022 0 0 0.326459 303.333828 200.309038)"><path d="M204.14,269.7c8,17.93,40.05,37.59,44.15,35.52c12.11-5.86,20.38-24.1,18.31-27.72s-29-13.64-29-13.64c-12.55-6.06-40.06-10.72-33.46,5.84Z" fill="#86b4c4"/><path d="M157.89,174.29c11.76-18.18,54.23-32.89,63.19-33.23c6.9,1.73,1,40.12,0,42.42-4.65,10.7-69.43,3.52-63.19-9.19Z" fill="#86b4c4"/><g><path d="M354.88,224.77c-22.87,16.76-47.81,6.33-46.7,1.78c6.24-22.84,51-46.08,64.41-44.18c8.95,1.29-4.67,32.85-17.71,42.4Z" fill="#86b4c4"/><path d="M354.88,228.34c-22.87-16.76-47.81-6.33-46.7-1.78c6.24,22.84,51,46.08,64.41,44.18c8.95-1.29-4.67-32.85-17.71-42.4Z" fill="#86b4c4"/></g><g><path d="M321.47,229c-42.13-54.63-197.1-95.83-281.45,2.92-3.43,4-.08,6,1.32,7.13C98.52,285.6,212.17,298.39,321.47,229Z" fill="#86b4c4"/><circle r="6.16" transform="translate(81.85 220.56)" fill="#1d3945"/><path d="M98.91,187.85c9.3,9,27.64,54.77,5.83,82.21C164.85,286,244.25,278,321.47,229c-33.54-43.51-138.56-78.48-222.56-41.15Z" fill="#689cad"/></g></g><g id="eAsiC1t2XpV32" transform="matrix(-.207791 0 0 0.243171 0.02396 172.027202)"><path d="M204.14,269.7c8,17.93,40.05,37.59,44.15,35.52c12.11-5.86,20.38-24.1,18.31-27.72s-29-13.64-29-13.64c-12.55-6.06-40.06-10.72-33.46,5.84Z" fill="#86b4c4"/><path d="M157.89,174.29c11.76-18.18,54.23-32.89,63.19-33.23c6.9,1.73,1,40.12,0,42.42-4.65,10.7-69.43,3.52-63.19-9.19Z" fill="#86b4c4"/><g><path d="M354.88,224.77c-22.87,16.76-47.81,6.33-46.7,1.78c6.24-22.84,51-46.08,64.41-44.18c8.95,1.29-4.67,32.85-17.71,42.4Z" fill="#86b4c4"/><path d="M354.88,228.34c-22.87-16.76-47.81-6.33-46.7-1.78c6.24,22.84,51,46.08,64.41,44.18c8.95-1.29-4.67-32.85-17.71-42.4Z" fill="#86b4c4"/></g><g><path d="M321.47,229c-42.13-54.63-197.1-95.83-281.45,2.92-3.43,4-.08,6,1.32,7.13C98.52,285.6,212.17,298.39,321.47,229Z" fill="#86b4c4"/><circle r="6.16" transform="translate(81.85 220.56)" fill="#1d3945"/><path d="M98.91,187.85c9.3,9,27.64,54.77,5.83,82.21C164.85,286,244.25,278,321.47,229c-33.54-43.51-138.56-78.48-222.56-41.15Z" fill="#689cad"/></g></g><g id="eAsiC1t2XpV42" transform="matrix(.305853 0 0 0.356895 299.71439 41.01478)"><path d="M204.14,269.7c8,17.93,40.05,37.59,44.15,35.52c12.11-5.86,20.38-24.1,18.31-27.72s-29-13.64-29-13.64c-12.55-6.06-40.06-10.72-33.46,5.84Z" fill="#86b4c4"/><path d="M157.89,174.29c11.76-18.18,54.23-32.89,63.19-33.23c6.9,1.73,1,40.12,0,42.42-4.65,10.7-69.43,3.52-63.19-9.19Z" fill="#86b4c4"/><g><path d="M354.88,224.77c-22.87,16.76-47.81,6.33-46.7,1.78c6.24-22.84,51-46.08,64.41-44.18c8.95,1.29-4.67,32.85-17.71,42.4Z" fill="#86b4c4"/><path d="M354.88,228.34c-22.87-16.76-47.81-6.33-46.7-1.78c6.24,22.84,51,46.08,64.41,44.18c8.95-1.29-4.67-32.85-17.71-42.4Z" fill="#86b4c4"/></g><g><path d="M321.47,229c-42.13-54.63-197.1-95.83-281.45,2.92-3.43,4-.08,6,1.32,7.13C98.52,285.6,212.17,298.39,321.47,229Z" fill="#86b4c4"/><circle r="6.16" transform="translate(81.85 220.56)" fill="#1d3945"/><path d="M98.91,187.85c9.3,9,27.64,54.77,5.83,82.21C164.85,286,244.25,278,321.47,229c-33.54-43.51-138.56-78.48-222.56-41.15Z" fill="#689cad"/></g></g></svg>
