<svg id="e37T02o8ca41" xmlns="http://www.w3.org/2000/svg" xmlns:xlink="http://www.w3.org/1999/xlink" viewBox="0 0 300 300" shape-rendering="geometricPrecision" text-rendering="geometricPrecision"><g id="e37T02o8ca42" transform="matrix(.082009 0 0 0.100971 316.687532 3.996793)"><path d="M1717.0071,621.1398c-93.3425,36.2371-273.7365,90.002-423.2512,127.8296-19.1033,4.82-39.1927,9.4164-60.2205,13.7932-12.373-32.7923-21.7352-54.4673-21.7352-54.4673L989.1425,755.7588c0,0,7.2285,16.4211,22.2836,41.2224-144.1906,16.2619-301.9813,24.4725-445.6338,24.4725-72.864,0-149.0768-23.7047-220.3543-57.2647-127.1772-59.8366-238.75-150.881-287.9134-193.9135c4.382-.4931,191.7786-21.8945,446.3515-35.748c4.7658,14.2925,18.2854,24.5817,34.1583,24.5817c17.189,0,31.5865-11.9892,35.2549-28.0867c377.1486-17.4084,869.0543-14.5619,1143.7178,90.1173Z" fill="#e1e1e1"/><path d="M2087.7439,715.6279c-226.3167,113.1094-282.879-151.4843-310.2469-124.1102-6.9496,6.9538-28.6349,17.2441-60.4399,29.6222h-.0499C1442.3437,516.4606,950.438,513.6142,573.2894,531.0227c.6085-2.5728.9373-5.2539.9373-8.0462c0-19.9803-16.2119-36.187-36.1922-36.187-19.921,0-36.1328,16.2068-36.1328,36.187c0,4.0532.6584,7.937,1.9745,11.5511-254.5729,13.8535-441.9695,35.2549-446.3515,35.748-.0551,0-.0551,0-.0551,0-17.0797-15-26.6063-24.1427-26.6063-24.1427C177.2581,426.0749,523.199,326.7107,934.7244,312.259c0,0,36.1921-195.2295,291.692-297.3859-56.1132,129.6398-51.4065,282.3298-5.8624,301.2145c188.6688,11.6594,384.0575,42.0994,575.1683,96.5718c0,0-62.0255-262.7825,310.2573-288.2922-394.1775,394.172-18.2357,591.2607-18.2357,591.2607Z" fill="#61666d"/><path d="M1292.1111,1014.873c-152.0875-36.7352-242.0896-154.5502-280.685-217.8918-15.0551-24.8012-22.2836-41.2224-22.2836-41.2224l222.6577-47.4635c0,0,9.3622,21.675,21.7352,54.4673c25.5638,67.9982,64.0491,183.6794,58.5757,252.1104Z" fill="#61666d"/><path d="M574.2266,522.9764c0,2.7923-.3288,5.4734-.9373,8.0462-3.6683,16.0975-18.0659,28.0867-35.2549,28.0867-15.8729,0-29.3925-10.2892-34.1583-24.5817-1.316-3.6142-1.9745-7.4979-1.9745-11.5511c0-19.9803,16.2118-36.187,36.1328-36.187c19.9802-.0001,36.1922,16.2066,36.1922,36.1869Z" fill="#221f1f"/><path d="M555.6521,507.3281c0,5.4142-4.3768,9.8104-9.7808,9.8104-5.4335,0-9.8104-4.3962-9.8104-9.8104c0-5.4193,4.3769-9.8012,9.8104-9.8012c5.404-.0001,9.7808,4.3819,9.7808,9.8012Z" fill="#fff"/><g><path d="M345.3536,763.6261c0,0,6.359-1.0244,17.4873-2.817c11.1325-1.7617,27.0361-4.2786,46.1204-7.2987c9.543-1.504,19.8812-3.1334,30.8158-4.8568c10.938-1.6988,22.4727-3.4903,34.405-5.3435c11.9352-1.8326,24.2683-3.7262,36.8003-5.6504c12.5355-1.8982,25.27-3.8265,38.0045-5.7549c12.7255-1.9939,25.451-3.9879,37.9777-5.9506c12.5189-2.0197,24.8495-3.931,36.8052-5.614c11.9625-1.6333,23.5426-3.092,34.5432-4.3337c5.5016-.6112,10.8531-1.2058,16.0296-1.7809c5.1833-.5249,10.1915-1.032,14.9992-1.5189c4.8051-.5067,9.4203-.9162,13.8093-1.3094c4.3904-.3826,8.5471-.8036,12.4677-1.0948c3.9177-.3122,7.5842-.6044,10.9745-.8746c3.3948-.2377,6.5129-.4561,9.3293-.6533c5.6347-.3805,10.0685-.6315,13.0943-.7828c3.0273-.1399,4.6419-.2145,4.6419-.2145l.1484,1.0848c0,0-1.5753.3617-4.529,1.0399-2.9553.6668-7.2936,1.6157-12.8235,2.7623-2.7659.5663-5.8282,1.1934-9.162,1.876-3.3384.6501-6.9487,1.3533-10.8064,2.1046-3.8547.7723-7.9718,1.483-12.3037,2.2935-4.3334.7999-8.889,1.6447-13.6537,2.4471-4.7618.8221-9.7222,1.6785-14.8561,2.5648-5.1408.8361-10.4554,1.7005-15.9191,2.5892-10.9299,1.7579-22.4764,3.4625-34.4381,5.1016-11.9684,1.5894-24.3594,3.0596-36.9609,4.4759-12.5936,1.4732-25.3872,2.9698-38.1807,4.4664-12.7846,1.5622-25.5692,3.1244-38.154,4.6622-12.5884,1.5118-24.977,2.9996-36.9659,4.4395-11.9918,1.4191-23.5838,2.791-34.5762,4.0919-10.9958,1.2763-21.3918,2.483-30.9882,3.5969-19.1943,2.2156-35.1896,4.062-46.3863,5.3545-11.2009,1.2616-17.6014,1.9825-17.6014,1.9825l-.1484-1.0848Z" fill="#231f20"/></g></g><g id="e37T02o8ca410" transform="matrix(-.082009 0 0 0.100971-9.814348 171.702423)"><path d="M1717.0071,621.1398c-93.3425,36.2371-273.7365,90.002-423.2512,127.8296-19.1033,4.82-39.1927,9.4164-60.2205,13.7932-12.373-32.7923-21.7352-54.4673-21.7352-54.4673L989.1425,755.7588c0,0,7.2285,16.4211,22.2836,41.2224-144.1906,16.2619-301.9813,24.4725-445.6338,24.4725-72.864,0-149.0768-23.7047-220.3543-57.2647-127.1772-59.8366-238.75-150.881-287.9134-193.9135c4.382-.4931,191.7786-21.8945,446.3515-35.748c4.7658,14.2925,18.2854,24.5817,34.1583,24.5817c17.189,0,31.5865-11.9892,35.2549-28.0867c377.1486-17.4084,869.0543-14.5619,1143.7178,90.1173Z" fill="#e1e1e1"/><path d="M2087.7439,715.6279c-226.3167,113.1094-282.879-151.4843-310.2469-124.1102-6.9496,6.9538-28.6349,17.2441-60.4399,29.6222h-.0499C1442.3437,516.4606,950.438,513.6142,573.2894,531.0227c.6085-2.5728.9373-5.2539.9373-8.0462c0-19.9803-16.2119-36.187-36.1922-36.187-19.921,0-36.1328,16.2068-36.1328,36.187c0,4.0532.6584,7.937,1.9745,11.5511-254.5729,13.8535-441.9695,35.2549-446.3515,35.748-.0551,0-.0551,0-.0551,0-17.0797-15-26.6063-24.1427-26.6063-24.1427C177.2581,426.0749,523.199,326.7107,934.7244,312.259c0,0,36.1921-195.2295,291.692-297.3859-56.1132,129.6398-51.4065,282.3298-5.8624,301.2145c188.6688,11.6594,384.0575,42.0994,575.1683,96.5718c0,0-62.0255-262.7825,310.2573-288.2922-394.1775,394.172-18.2357,591.2607-18.2357,591.2607Z" fill="#61666d"/><path d="M1292.1111,1014.873c-152.0875-36.7352-242.0896-154.5502-280.685-217.8918-15.0551-24.8012-22.2836-41.2224-22.2836-41.2224l222.6577-47.4635c0,0,9.3622,21.675,21.7352,54.4673c25.5638,67.9982,64.0491,183.6794,58.5757,252.1104Z" fill="#61666d"/><path d="M574.2266,522.9764c0,2.7923-.3288,5.4734-.9373,8.0462-3.6683,16.0975-18.0659,28.0867-35.2549,28.0867-15.8729,0-29.3925-10.2892-34.1583-24.5817-1.316-3.6142-1.9745-7.4979-1.9745-11.5511c0-19.9803,16.2118-36.187,36.1328-36.187c19.9802-.0001,36.1922,16.2066,36.1922,36.1869Z" fill="#221f1f"/><path d="M555.6521,507.3281c0,5.4142-4.3768,9.8104-9.7808,9.8104-5.4335,0-9.8104-4.3962-9.8104-9.8104c0-5.4193,4.3769-9.8012,9.8104-9.8012c5.404-.0001,9.7808,4.3819,9.7808,9.8012Z" fill="#fff"/><g><path d="M345.3536,763.6261c0,0,6.359-1.0244,17.4873-2.817c11.1325-1.7617,27.0361-4.2786,46.1204-7.2987c9.543-1.504,19.8812-3.1334,30.8158-4.8568c10.938-1.6988,22.4727-3.4903,34.405-5.3435c11.9352-1.8326,24.2683-3.7262,36.8003-5.6504c12.5355-1.8982,25.27-3.8265,38.0045-5.7549c12.7255-1.9939,25.451-3.9879,37.9777-5.9506c12.5189-2.0197,24.8495-3.931,36.8052-5.614c11.9625-1.6333,23.5426-3.092,34.5432-4.3337c5.5016-.6112,10.8531-1.2058,16.0296-1.7809c5.1833-.5249,10.1915-1.032,14.9992-1.5189c4.8051-.5067,9.4203-.9162,13.8093-1.3094c4.3904-.3826,8.5471-.8036,12.4677-1.0948c3.9177-.3122,7.5842-.6044,10.9745-.8746c3.3948-.2377,6.5129-.4561,9.3293-.6533c5.6347-.3805,10.0685-.6315,13.0943-.7828c3.0273-.1399,4.6419-.2145,4.6419-.2145l.1484,1.0848c0,0-1.5753.3617-4.529,1.0399-2.9553.6668-7.2936,1.6157-12.8235,2.7623-2.7659.5663-5.8282,1.1934-9.162,1.876-3.3384.6501-6.9487,1.3533-10.8064,2.1046-3.8547.7723-7.9718,1.483-12.3037,2.2935-4.3334.7999-8.889,1.6447-13.6537,2.4471-4.7618.8221-9.7222,1.6785-14.8561,2.5648-5.1408.8361-10.4554,1.7005-15.9191,2.5892-10.9299,1.7579-22.4764,3.4625-34.4381,5.1016-11.9684,1.5894-24.3594,3.0596-36.9609,4.4759-12.5936,1.4732-25.3872,2.9698-38.1807,4.4664-12.7846,1.5622-25.5692,3.1244-38.154,4.6622-12.5884,1.5118-24.977,2.9996-36.9659,4.4395-11.9918,1.4191-23.5838,2.791-34.5762,4.0919-10.9958,1.2763-21.3918,2.483-30.9882,3.5969-19.1943,2.2156-35.1896,4.062-46.3863,5.3545-11.2009,1.2616-17.6014,1.9825-17.6014,1.9825l-.1484-1.0848Z" fill="#231f20"/></g></g></svg>
