<svg id="eqykzTKwidG1" xmlns="http://www.w3.org/2000/svg" xmlns:xlink="http://www.w3.org/1999/xlink" viewBox="0 0 300 300" shape-rendering="geometricPrecision" text-rendering="geometricPrecision"><g id="eqykzTKwidG2" transform="matrix(-1 0 0 1-29.638241-76.837447)"><g transform="translate(-8.99634 4.9656)"><path d="M232.48463,97.09568c3.50185,1.06646,6.68931,1.910833,9.34028,2.446297-8.94642,2.772643-11.04956,2.506723-1.78287,8.559803c9.75735,3.60391,20.11171,6.58772,41.77082-2.17067-9.30238-5.22099-18.42995-11.112014-29.91386-7.971452.90623-5.947073-3.65941-7.80569-6.4838-10.965334-7.3659,3.112914-10.4289,6.372945-12.93057,10.101356Z" fill="#023f60" stroke="#000" stroke-width="0.264583"/><path d="M113.41289,118.05784c-9.71972-3.08341-13.690356-17.23862-24.058983-21.704209-4.541776-1.607782-8.51704-4.43794-12.426701-7.40965-10.180151-12.658404-32.527315-16.968352-48.624633-18.74001c16.428755,7.078407,48.654732,44.182549,85.110317,47.853869Z" fill="#4a96b6" stroke="#000" stroke-width="0.264583"/><path d="M71.575286,101.26066c3.992178,2.62772,8.077185,5.04748,12.341901,7.29581-7.36267,13.1473-11.480667,27.87022-14.947143,42.90953-.618213,4.99976-5.480219-.0168-7.126027-2.12321-2.535653-2.26245.09026-2.64864-.771223-3.75994-1.584914-1.4113-.886134-2.26628-.694544-3.24482c1.313133-1.42055.679644-2.41515.122702-3.4265-1.249917-2.184,2.540007-2.81608.952031-5.37078-1.803007-1.95671,2.319987-2.27667.868121-5.3392-.693817-1.53379,2.223257-3.25638-1.064085-4.97648-3.344475-2.19212,3.474642-3.32203,2.033997-5.01038-1.58512-2.41895,2.589226-3.17495,2.050054-4.63459-1.129207-2.97315,1.140249-3.27905,1.37869-5.24059.316195-4.06554,2.110474-6.19491,4.855526-7.07885Z" fill="#7db3bf" stroke="#000" stroke-width="0.264583"/><path d="M132.92545,120.46275c-3.79061-2.43979-6.64664-5.72259-8.46439-9.94197-2.18049-4.86734-4.21682-9.8618-11.98307-9.80379-6.60449,2.40442-8.69497,6.92415.67011,17.22781c3.57316,4.68291,6.07274,9.98727,8.7431,15.19277-.75053,4.57935,5.94107,6.3982,8.95218,9.58225c1.46732.76841,4.5668,3.78059,4.55116,4.71479-2.42893,1.52516,3.57842,3.68948,3.05016,5.71537-1.34906,2.62924-.20233,3.12361,1.01687,3.72931c1.4821.65282,2.25393,1.49927,2.3574,3.93672-.35688,1.74149-.12874,3.23769,1.89471,4.28214c1.40459,1.4395.8338,3.93327,2.80549,5.56601.95259,1.29027-1.52009,1.18073,1.59022,4.28982c2.77111,3.44164,8.89446,3.84266,6.82788-.0724-4.45091-19.10885-6.77788-38.92875-22.01182-54.41881Z" fill="#03486c" stroke="#000" stroke-width="0.264583"/><path d="M24.666459,52.220721c5.20282-4.39718,18.78974-1.41954,29.35216-1.10231c7.62639-1.26265,15.24497-2.57276,24.20047,4.24723c29.643401,5.37259,59.848101,12.12844,90.844891,20.83622c5.28994-1.90018,14.23475-.18564,22.16628.52674c9.66254.63668,1.56089,1.42918,2.27627,4.71632c13.37816,7.0345,36.41017,15.80533,48.4239,18.23196-8.94642,2.772639-11.04956,2.506719-1.78287,8.559799-10.85626,5.65662-23.09581,7.2777-34.89209,10.19195-42.15181,11.09328-72.43978,11.48501-80.79441-7.90785-2.18049-4.86734-4.21682-9.8618-11.98307-9.80379-6.60449,2.40442-8.69497,6.92415.67011,17.22781-9.71972-3.08341-13.690351-17.23862-24.058981-21.704229-4.54177-1.60779-8.51704-4.43794-12.4267-7.40965-10.18015-12.65841-32.52731-16.96836-48.62463-18.74001-7.60053.70996-9.39944-18.91055-3.37133-17.87019Z" fill="#023f60" stroke="#000" stroke-width="0.264583"/><path d="M108.09963,111.12275c1.01309,1.93769,2.65741,4.19135,5.04847,6.82205c3.57316,4.68291,6.07274,9.98727,8.7431,15.19277-.75053,4.57935,5.94107,6.3982,8.95218,9.58225c1.46732.76841,4.5668,3.78059,4.55116,4.71479-2.42893,1.52516,3.57842,3.68948,3.05016,5.71537-1.34906,2.62924-.20233,3.12361,1.01687,3.72931c1.4821.65282,2.25393,1.49927,2.3574,3.93672-.35688,1.74149-.12874,3.23769,1.89471,4.28214c1.40459,1.4395.8338,3.93327,2.80549,5.56601.95259,1.29027-1.52009,1.18073,1.59022,4.28982.78704.97748,1.84449,1.70969,2.90792,2.16741.56092.1204-12.94175-40.56804-24.872-41.71798-11.22388-25.66074-15.23494-24.32767-18.04568-24.28066Z" fill="#a1d2d7" stroke="#000" stroke-width="0.264583"/><path d="M24.666459,52.220719c1.056154,2.43627,59.108777,6.284364,61.74856,26.68447" fill="none" stroke="#000" stroke-width="1.065"/><g transform="translate(1.5875 0)"><ellipse rx="3.43315" ry="1.89185" transform="matrix(.951231 0.30848-.30848 0.951231 92.018256 77.860477)" opacity="0.97" fill="#999" stroke="#000" stroke-width="0.418374"/><ellipse rx="1.36388" ry="1.83292" transform="matrix(.949754 0.312997-.312997 0.949754 92.044493 77.864527)" opacity="0.97" stroke="#000" stroke-width="0.32712"/><path d="M88.106764,73.906325c3.369087-.144627,6.650182.63865,9.720334,3.646377" fill="none" stroke="#000" stroke-width="0.264583"/><path d="M96.340266,81.913486c-3.369087.144627-6.650182-.63865-9.720334-3.646377" fill="none" stroke="#000" stroke-width="0.264583"/></g><path d="M240.08484,107.98691c9.75735,3.60391,20.11171,6.58772,41.77081-2.17067.29473,4.06835-27.79477,12.49708-42.99292,3.11963.72995-.27847.64892-.17296,1.22211-.94896Z" fill="#7db3bf" stroke="#000" stroke-width="0.264583"/><ellipse rx="1.0976" ry="0.759415" transform="translate(30.4196 51.594)" fill="#666" stroke-width="0.442195"/><ellipse rx="1.0976" ry="0.759415" transform="translate(35.007 52.13)" fill="#666" stroke-width="0.442195"/><ellipse rx="1.0976" ry="0.759415" transform="translate(38.426 51.215)" fill="#666" stroke-width="0.442195"/><ellipse rx="1.0976" ry="0.759415" transform="translate(42.3429 51.9614)" fill="#666" stroke-width="0.442195"/><ellipse rx="1.0976" ry="0.759415" transform="translate(45.436 53.4347)" fill="#666" stroke-width="0.442195"/><ellipse rx="1.0976" ry="0.759415" transform="translate(47.3736 55.1984)" fill="#666" stroke-width="0.442195"/><ellipse rx="1.0976" ry="0.759415" transform="translate(52.7123 55.1698)" fill="#666" stroke-width="0.442195"/><ellipse rx="1.0976" ry="0.759415" transform="translate(56.5786 57.1984)" fill="#666" stroke-width="0.442195"/><ellipse rx="1.0976" ry="0.759415" transform="translate(63.3532 59.0143)" fill="#666" stroke-width="0.442195"/><ellipse rx="1.0976" ry="0.759415" transform="translate(64.784 56.8158)" fill="#666" stroke-width="0.442195"/><ellipse rx="1.0976" ry="0.759415" transform="translate(68.2657 58.6189)" fill="#666" stroke-width="0.442195"/><ellipse rx="1.0976" ry="0.759415" transform="translate(72.9965 60.9293)" fill="#666" stroke-width="0.442195"/><ellipse rx="1.0976" ry="0.759415" transform="translate(23.9571 56.8697)" fill="#666" stroke-width="0.442195"/><ellipse rx="1.0976" ry="0.759415" transform="translate(23.5013 59.9118)" fill="#666" stroke-width="0.442195"/><ellipse rx="1.0976" ry="0.759415" transform="translate(23.8227 64.6633)" fill="#666" stroke-width="0.442195"/><ellipse rx="1.0976" ry="0.759415" transform="translate(28.7141 58.5972)" fill="#666" stroke-width="0.442195"/><ellipse rx="1.0976" ry="0.759415" transform="translate(32.1721 55.8233)" fill="#666" stroke-width="0.442195"/><ellipse rx="1.0976" ry="0.759415" transform="translate(37.9854 58.6902)" fill="#666" stroke-width="0.442195"/><ellipse rx="1.0976" ry="0.759415" transform="translate(36.5519 64.0256)" fill="#666" stroke-width="0.442195"/><ellipse rx="1.0976" ry="0.759415" transform="translate(45.1524 62.194)" fill="#666" stroke-width="0.442195"/><path d="M64.660276,81.66859c6.82454,7.990478,14.647955,12.475102,22.993998,15.125401" fill="none" stroke="#000" stroke-width="0.264583"/><path d="M57.629586,77.701391c2.223042,2.616225,3.701446,4.562671,8.363314,8.958536c7.655012,7.218222,16.533647,9.973612,27.92254,15.170013" fill="none" stroke="#000" stroke-width="0.264583"/><path d="M52.075791,76.000898c7.898966,10.085011,27.609106,26.541042,46.69597,31.214652" fill="none" stroke="#000" stroke-width="0.264583"/><path d="M47.450055,74.995483C61.923294,95.621741,81.326443,103.87417,102.4414,111.37738" fill="none" stroke="#000" stroke-width="0.264583"/><path d="M40.614671,73.307277c19.18272,21.663376,40.395531,35.232083,64.899919,42.264263" fill="none" stroke="#000" stroke-width="0.264583"/></g></g><g transform="translate(345.480268 135.309146)"><g id="eqykzTKwidG43" transform="translate(-8.99634 4.9656)"><path d="M232.48463,97.09568c3.50185,1.06646,6.68931,1.910833,9.34028,2.446297-8.94642,2.772643-11.04956,2.506723-1.78287,8.559803c9.75735,3.60391,20.11171,6.58772,41.77082-2.17067-9.30238-5.22099-18.42995-11.112014-29.91386-7.971452.90623-5.947073-3.65941-7.80569-6.4838-10.965334-7.3659,3.112914-10.4289,6.372945-12.93057,10.101356Z" fill="#023f60" stroke="#000" stroke-width="0.264583"/><path d="M113.41289,118.05784c-9.71972-3.08341-13.690356-17.23862-24.058983-21.704209-4.541776-1.607782-8.51704-4.43794-12.426701-7.40965-10.180151-12.658404-32.527315-16.968352-48.624633-18.74001c16.428755,7.078407,48.654732,44.182549,85.110317,47.853869Z" fill="#4a96b6" stroke="#000" stroke-width="0.264583"/><path d="M71.575286,101.26066c3.992178,2.62772,8.077185,5.04748,12.341901,7.29581-7.36267,13.1473-11.480667,27.87022-14.947143,42.90953-.618213,4.99976-5.480219-.0168-7.126027-2.12321-2.535653-2.26245.09026-2.64864-.771223-3.75994-1.584914-1.4113-.886134-2.26628-.694544-3.24482c1.313133-1.42055.679644-2.41515.122702-3.4265-1.249917-2.184,2.540007-2.81608.952031-5.37078-1.803007-1.95671,2.319987-2.27667.868121-5.3392-.693817-1.53379,2.223257-3.25638-1.064085-4.97648-3.344475-2.19212,3.474642-3.32203,2.033997-5.01038-1.58512-2.41895,2.589226-3.17495,2.050054-4.63459-1.129207-2.97315,1.140249-3.27905,1.37869-5.24059.316195-4.06554,2.110474-6.19491,4.855526-7.07885Z" fill="#7db3bf" stroke="#000" stroke-width="0.264583"/><path d="M132.92545,120.46275c-3.79061-2.43979-6.64664-5.72259-8.46439-9.94197-2.18049-4.86734-4.21682-9.8618-11.98307-9.80379-6.60449,2.40442-8.69497,6.92415.67011,17.22781c3.57316,4.68291,6.07274,9.98727,8.7431,15.19277-.75053,4.57935,5.94107,6.3982,8.95218,9.58225c1.46732.76841,4.5668,3.78059,4.55116,4.71479-2.42893,1.52516,3.57842,3.68948,3.05016,5.71537-1.34906,2.62924-.20233,3.12361,1.01687,3.72931c1.4821.65282,2.25393,1.49927,2.3574,3.93672-.35688,1.74149-.12874,3.23769,1.89471,4.28214c1.40459,1.4395.8338,3.93327,2.80549,5.56601.95259,1.29027-1.52009,1.18073,1.59022,4.28982c2.77111,3.44164,8.89446,3.84266,6.82788-.0724-4.45091-19.10885-6.77788-38.92875-22.01182-54.41881Z" fill="#03486c" stroke="#000" stroke-width="0.264583"/><path d="M24.666459,52.220721c5.20282-4.39718,18.78974-1.41954,29.35216-1.10231c7.62639-1.26265,15.24497-2.57276,24.20047,4.24723c29.643401,5.37259,59.848101,12.12844,90.844891,20.83622c5.28994-1.90018,14.23475-.18564,22.16628.52674c9.66254.63668,1.56089,1.42918,2.27627,4.71632c13.37816,7.0345,36.41017,15.80533,48.4239,18.23196-8.94642,2.772639-11.04956,2.506719-1.78287,8.559799-10.85626,5.65662-23.09581,7.2777-34.89209,10.19195-42.15181,11.09328-72.43978,11.48501-80.79441-7.90785-2.18049-4.86734-4.21682-9.8618-11.98307-9.80379-6.60449,2.40442-8.69497,6.92415.67011,17.22781-9.71972-3.08341-13.690351-17.23862-24.058981-21.704229-4.54177-1.60779-8.51704-4.43794-12.4267-7.40965-10.18015-12.65841-32.52731-16.96836-48.62463-18.74001-7.60053.70996-9.39944-18.91055-3.37133-17.87019Z" fill="#023f60" stroke="#000" stroke-width="0.264583"/><path d="M108.09963,111.12275c1.01309,1.93769,2.65741,4.19135,5.04847,6.82205c3.57316,4.68291,6.07274,9.98727,8.7431,15.19277-.75053,4.57935,5.94107,6.3982,8.95218,9.58225c1.46732.76841,4.5668,3.78059,4.55116,4.71479-2.42893,1.52516,3.57842,3.68948,3.05016,5.71537-1.34906,2.62924-.20233,3.12361,1.01687,3.72931c1.4821.65282,2.25393,1.49927,2.3574,3.93672-.35688,1.74149-.12874,3.23769,1.89471,4.28214c1.40459,1.4395.8338,3.93327,2.80549,5.56601.95259,1.29027-1.52009,1.18073,1.59022,4.28982.78704.97748,1.84449,1.70969,2.90792,2.16741.56092.1204-12.94175-40.56804-24.872-41.71798-11.22388-25.66074-15.23494-24.32767-18.04568-24.28066Z" fill="#a1d2d7" stroke="#000" stroke-width="0.264583"/><path d="M24.666459,52.220719c1.056154,2.43627,59.108777,6.284364,61.74856,26.68447" fill="none" stroke="#000" stroke-width="1.065"/><g transform="translate(1.5875 0)"><ellipse rx="3.43315" ry="1.89185" transform="matrix(.951231 0.30848-.30848 0.951231 92.018256 77.860477)" opacity="0.97" fill="#999" stroke="#000" stroke-width="0.418374"/><ellipse rx="1.36388" ry="1.83292" transform="matrix(.949754 0.312997-.312997 0.949754 92.044493 77.864527)" opacity="0.97" stroke="#000" stroke-width="0.32712"/><path d="M88.106764,73.906325c3.369087-.144627,6.650182.63865,9.720334,3.646377" fill="none" stroke="#000" stroke-width="0.264583"/><path d="M96.340266,81.913486c-3.369087.144627-6.650182-.63865-9.720334-3.646377" fill="none" stroke="#000" stroke-width="0.264583"/></g><path d="M240.08484,107.98691c9.75735,3.60391,20.11171,6.58772,41.77081-2.17067.29473,4.06835-27.79477,12.49708-42.99292,3.11963.72995-.27847.64892-.17296,1.22211-.94896Z" fill="#7db3bf" stroke="#000" stroke-width="0.264583"/><ellipse rx="1.0976" ry="0.759415" transform="translate(30.4196 51.594)" fill="#666" stroke-width="0.442195"/><ellipse rx="1.0976" ry="0.759415" transform="translate(35.007 52.13)" fill="#666" stroke-width="0.442195"/><ellipse rx="1.0976" ry="0.759415" transform="translate(38.426 51.215)" fill="#666" stroke-width="0.442195"/><ellipse rx="1.0976" ry="0.759415" transform="translate(42.3429 51.9614)" fill="#666" stroke-width="0.442195"/><ellipse rx="1.0976" ry="0.759415" transform="translate(45.436 53.4347)" fill="#666" stroke-width="0.442195"/><ellipse rx="1.0976" ry="0.759415" transform="translate(47.3736 55.1984)" fill="#666" stroke-width="0.442195"/><ellipse rx="1.0976" ry="0.759415" transform="translate(52.7123 55.1698)" fill="#666" stroke-width="0.442195"/><ellipse rx="1.0976" ry="0.759415" transform="translate(56.5786 57.1984)" fill="#666" stroke-width="0.442195"/><ellipse rx="1.0976" ry="0.759415" transform="translate(63.3532 59.0143)" fill="#666" stroke-width="0.442195"/><ellipse rx="1.0976" ry="0.759415" transform="translate(64.784 56.8158)" fill="#666" stroke-width="0.442195"/><ellipse rx="1.0976" ry="0.759415" transform="translate(68.2657 58.6189)" fill="#666" stroke-width="0.442195"/><ellipse rx="1.0976" ry="0.759415" transform="translate(72.9965 60.9293)" fill="#666" stroke-width="0.442195"/><ellipse rx="1.0976" ry="0.759415" transform="translate(23.9571 56.8697)" fill="#666" stroke-width="0.442195"/><ellipse rx="1.0976" ry="0.759415" transform="translate(23.5013 59.9118)" fill="#666" stroke-width="0.442195"/><ellipse rx="1.0976" ry="0.759415" transform="translate(23.8227 64.6633)" fill="#666" stroke-width="0.442195"/><ellipse rx="1.0976" ry="0.759415" transform="translate(28.7141 58.5972)" fill="#666" stroke-width="0.442195"/><ellipse rx="1.0976" ry="0.759415" transform="translate(32.1721 55.8233)" fill="#666" stroke-width="0.442195"/><ellipse rx="1.0976" ry="0.759415" transform="translate(37.9854 58.6902)" fill="#666" stroke-width="0.442195"/><ellipse rx="1.0976" ry="0.759415" transform="translate(36.5519 64.0256)" fill="#666" stroke-width="0.442195"/><ellipse rx="1.0976" ry="0.759415" transform="translate(45.1524 62.194)" fill="#666" stroke-width="0.442195"/><path d="M64.660276,81.66859c6.82454,7.990478,14.647955,12.475102,22.993998,15.125401" fill="none" stroke="#000" stroke-width="0.264583"/><path d="M57.629586,77.701391c2.223042,2.616225,3.701446,4.562671,8.363314,8.958536c7.655012,7.218222,16.533647,9.973612,27.92254,15.170013" fill="none" stroke="#000" stroke-width="0.264583"/><path d="M52.075791,76.000898c7.898966,10.085011,27.609106,26.541042,46.69597,31.214652" fill="none" stroke="#000" stroke-width="0.264583"/><path d="M47.450055,74.995483C61.923294,95.621741,81.326443,103.87417,102.4414,111.37738" fill="none" stroke="#000" stroke-width="0.264583"/><path d="M40.614671,73.307277c19.18272,21.663376,40.395531,35.232083,64.899919,42.264263" fill="none" stroke="#000" stroke-width="0.264583"/></g></g></svg>
